<svg xmlns="http://www.w3.org/2000/svg" viewBox="0 0 512 512">
  <defs><linearGradient id="g" x1="0" y1="0" x2="1" y2="1">
    <stop offset="0%" stop-color="#00e5ff"/><stop offset="100%" stop-color="#c060ff"/>
  </linearGradient></defs>
  <rect width="512" height="512" rx="112" ry="112" fill="url(#g)"/>
  <circle cx="256" cy="256" r="220" fill="#0b1030"/>
  <g stroke="#ffffff" stroke-opacity="0.37" stroke-width="6"><line x1="453.1" y1="256.0" x2="476.2" y2="256.0"/><line x1="452.8" y1="266.3" x2="475.9" y2="267.5"/><line x1="452.0" y1="276.6" x2="475.0" y2="279.0"/><line x1="450.7" y1="286.8" x2="473.4" y2="290.4"/><line x1="448.8" y1="297.0" x2="471.3" y2="301.8"/><line x1="446.4" y1="307.0" x2="468.7" y2="313.0"/><line x1="443.5" y1="316.9" x2="465.4" y2="324.0"/><line x1="440.0" y1="326.6" x2="461.5" y2="334.9"/><line x1="436.1" y1="336.2" x2="457.1" y2="345.5"/><line x1="431.6" y1="345.5" x2="452.2" y2="356.0"/><line x1="426.7" y1="354.6" x2="446.7" y2="366.1"/><line x1="421.3" y1="363.4" x2="440.6" y2="375.9"/><line x1="415.5" y1="371.9" x2="434.1" y2="385.4"/><line x1="409.2" y1="380.1" x2="427.1" y2="394.6"/><line x1="402.5" y1="387.9" x2="419.6" y2="403.3"/><line x1="395.4" y1="395.4" x2="411.7" y2="411.7"/><line x1="387.9" y1="402.5" x2="403.3" y2="419.6"/><line x1="380.1" y1="409.2" x2="394.6" y2="427.1"/><line x1="371.9" y1="415.5" x2="385.4" y2="434.1"/><line x1="363.4" y1="421.3" x2="375.9" y2="440.6"/><line x1="354.6" y1="426.7" x2="366.1" y2="446.7"/><line x1="345.5" y1="431.6" x2="356.0" y2="452.2"/><line x1="336.2" y1="436.1" x2="345.5" y2="457.1"/><line x1="326.6" y1="440.0" x2="334.9" y2="461.5"/><line x1="316.9" y1="443.5" x2="324.0" y2="465.4"/><line x1="307.0" y1="446.4" x2="313.0" y2="468.7"/><line x1="297.0" y1="448.8" x2="301.8" y2="471.3"/><line x1="286.8" y1="450.7" x2="290.4" y2="473.4"/><line x1="276.6" y1="452.0" x2="279.0" y2="475.0"/><line x1="266.3" y1="452.8" x2="267.5" y2="475.9"/><line x1="256.0" y1="453.1" x2="256.0" y2="476.2"/><line x1="245.7" y1="452.8" x2="244.5" y2="475.9"/><line x1="235.4" y1="452.0" x2="233.0" y2="475.0"/><line x1="225.2" y1="450.7" x2="221.6" y2="473.4"/><line x1="215.0" y1="448.8" x2="210.2" y2="471.3"/><line x1="205.0" y1="446.4" x2="199.0" y2="468.7"/><line x1="195.1" y1="443.5" x2="188.0" y2="465.4"/><line x1="185.4" y1="440.0" x2="177.1" y2="461.5"/><line x1="175.8" y1="436.1" x2="166.5" y2="457.1"/><line x1="166.5" y1="431.6" x2="156.0" y2="452.2"/><line x1="157.4" y1="426.7" x2="145.9" y2="446.7"/><line x1="148.6" y1="421.3" x2="136.1" y2="440.6"/><line x1="140.1" y1="415.5" x2="126.6" y2="434.1"/><line x1="131.9" y1="409.2" x2="117.4" y2="427.1"/><line x1="124.1" y1="402.5" x2="108.7" y2="419.6"/><line x1="116.6" y1="395.4" x2="100.3" y2="411.7"/><line x1="109.5" y1="387.9" x2="92.4" y2="403.3"/><line x1="102.8" y1="380.1" x2="84.9" y2="394.6"/><line x1="96.5" y1="371.9" x2="77.9" y2="385.4"/><line x1="90.7" y1="363.4" x2="71.4" y2="375.9"/><line x1="85.3" y1="354.6" x2="65.3" y2="366.1"/><line x1="80.4" y1="345.5" x2="59.8" y2="356.0"/><line x1="75.9" y1="336.2" x2="54.9" y2="345.5"/><line x1="72.0" y1="326.6" x2="50.5" y2="334.9"/><line x1="68.5" y1="316.9" x2="46.6" y2="324.0"/><line x1="65.6" y1="307.0" x2="43.3" y2="313.0"/><line x1="63.2" y1="297.0" x2="40.7" y2="301.8"/><line x1="61.3" y1="286.8" x2="38.6" y2="290.4"/><line x1="60.0" y1="276.6" x2="37.0" y2="279.0"/><line x1="59.2" y1="266.3" x2="36.1" y2="267.5"/><line x1="58.9" y1="256.0" x2="35.8" y2="256.0"/><line x1="59.2" y1="245.7" x2="36.1" y2="244.5"/><line x1="60.0" y1="235.4" x2="37.0" y2="233.0"/><line x1="61.3" y1="225.2" x2="38.6" y2="221.6"/><line x1="63.2" y1="215.0" x2="40.7" y2="210.2"/><line x1="65.6" y1="205.0" x2="43.3" y2="199.0"/><line x1="68.5" y1="195.1" x2="46.6" y2="188.0"/><line x1="72.0" y1="185.4" x2="50.5" y2="177.1"/><line x1="75.9" y1="175.8" x2="54.9" y2="166.5"/><line x1="80.4" y1="166.5" x2="59.8" y2="156.0"/><line x1="85.3" y1="157.4" x2="65.3" y2="145.9"/><line x1="90.7" y1="148.6" x2="71.4" y2="136.1"/><line x1="96.5" y1="140.1" x2="77.9" y2="126.6"/><line x1="102.8" y1="131.9" x2="84.9" y2="117.4"/><line x1="109.5" y1="124.1" x2="92.4" y2="108.7"/><line x1="116.6" y1="116.6" x2="100.3" y2="100.3"/><line x1="124.1" y1="109.5" x2="108.7" y2="92.4"/><line x1="131.9" y1="102.8" x2="117.4" y2="84.9"/><line x1="140.1" y1="96.5" x2="126.6" y2="77.9"/><line x1="148.6" y1="90.7" x2="136.1" y2="71.4"/><line x1="157.4" y1="85.3" x2="145.9" y2="65.3"/><line x1="166.5" y1="80.4" x2="156.0" y2="59.8"/><line x1="175.8" y1="75.9" x2="166.5" y2="54.9"/><line x1="185.4" y1="72.0" x2="177.1" y2="50.5"/><line x1="195.1" y1="68.5" x2="188.0" y2="46.6"/><line x1="205.0" y1="65.6" x2="199.0" y2="43.3"/><line x1="215.0" y1="63.2" x2="210.2" y2="40.7"/><line x1="225.2" y1="61.3" x2="221.6" y2="38.6"/><line x1="235.4" y1="60.0" x2="233.0" y2="37.0"/><line x1="245.7" y1="59.2" x2="244.5" y2="36.1"/><line x1="256.0" y1="58.9" x2="256.0" y2="35.8"/><line x1="266.3" y1="59.2" x2="267.5" y2="36.1"/><line x1="276.6" y1="60.0" x2="279.0" y2="37.0"/><line x1="286.8" y1="61.3" x2="290.4" y2="38.6"/><line x1="297.0" y1="63.2" x2="301.8" y2="40.7"/><line x1="307.0" y1="65.6" x2="313.0" y2="43.3"/><line x1="316.9" y1="68.5" x2="324.0" y2="46.6"/><line x1="326.6" y1="72.0" x2="334.9" y2="50.5"/><line x1="336.2" y1="75.9" x2="345.5" y2="54.9"/><line x1="345.5" y1="80.4" x2="356.0" y2="59.8"/><line x1="354.6" y1="85.3" x2="366.1" y2="65.3"/><line x1="363.4" y1="90.7" x2="375.9" y2="71.4"/><line x1="371.9" y1="96.5" x2="385.4" y2="77.9"/><line x1="380.1" y1="102.8" x2="394.6" y2="84.9"/><line x1="387.9" y1="109.5" x2="403.3" y2="92.4"/><line x1="395.4" y1="116.6" x2="411.7" y2="100.3"/><line x1="402.5" y1="124.1" x2="419.6" y2="108.7"/><line x1="409.2" y1="131.9" x2="427.1" y2="117.4"/><line x1="415.5" y1="140.1" x2="434.1" y2="126.6"/><line x1="421.3" y1="148.6" x2="440.6" y2="136.1"/><line x1="426.7" y1="157.4" x2="446.7" y2="145.9"/><line x1="431.6" y1="166.5" x2="452.2" y2="156.0"/><line x1="436.1" y1="175.8" x2="457.1" y2="166.5"/><line x1="440.0" y1="185.4" x2="461.5" y2="177.1"/><line x1="443.5" y1="195.1" x2="465.4" y2="188.0"/><line x1="446.4" y1="205.0" x2="468.7" y2="199.0"/><line x1="448.8" y1="215.0" x2="471.3" y2="210.2"/><line x1="450.7" y1="225.2" x2="473.4" y2="221.6"/><line x1="452.0" y1="235.4" x2="475.0" y2="233.0"/><line x1="452.8" y1="245.7" x2="475.9" y2="244.5"/></g>
  <circle cx="256" cy="256" r="182" fill="none" stroke="#ffffff" stroke-opacity="0.35" stroke-width="4"/>
  <text x="256" y="262" text-anchor="middle" dominant-baseline="central"
        font-family="'Segoe UI','Arial',sans-serif" font-weight="800" font-size="236" fill="url(#g)">D</text>
</svg>
