<svg xmlns="http://www.w3.org/2000/svg" viewBox="0 0 512 512">
  <defs><linearGradient id="g" x1="0" y1="0" x2="1" y2="1">
    <stop offset="0%" stop-color="#00e5ff"/><stop offset="100%" stop-color="#c060ff"/>
  </linearGradient></defs>
  <rect width="512" height="512" fill="url(#g)"/>
  <circle cx="256" cy="256" r="174" fill="#0b1030"/>
  <g stroke="#ffffff" stroke-opacity="0.37" stroke-width="6"><line x1="407.0" y1="256.0" x2="430.1" y2="256.0"/><line x1="406.8" y1="263.9" x2="429.8" y2="265.1"/><line x1="406.2" y1="271.8" x2="429.1" y2="274.2"/><line x1="405.2" y1="279.6" x2="427.9" y2="283.2"/><line x1="403.7" y1="287.4" x2="426.3" y2="292.2"/><line x1="401.9" y1="295.1" x2="424.1" y2="301.1"/><line x1="399.6" y1="302.7" x2="421.6" y2="309.8"/><line x1="397.0" y1="310.1" x2="418.5" y2="318.4"/><line x1="394.0" y1="317.4" x2="415.0" y2="326.8"/><line x1="390.6" y1="324.6" x2="411.1" y2="335.0"/><line x1="386.8" y1="331.5" x2="406.8" y2="343.0"/><line x1="382.7" y1="338.3" x2="402.0" y2="350.8"/><line x1="378.2" y1="344.8" x2="396.8" y2="358.3"/><line x1="373.4" y1="351.1" x2="391.3" y2="365.6"/><line x1="368.2" y1="357.1" x2="385.4" y2="372.5"/><line x1="362.8" y1="362.8" x2="379.1" y2="379.1"/><line x1="357.1" y1="368.2" x2="372.5" y2="385.4"/><line x1="351.1" y1="373.4" x2="365.6" y2="391.3"/><line x1="344.8" y1="378.2" x2="358.3" y2="396.8"/><line x1="338.3" y1="382.7" x2="350.8" y2="402.0"/><line x1="331.5" y1="386.8" x2="343.0" y2="406.8"/><line x1="324.6" y1="390.6" x2="335.0" y2="411.1"/><line x1="317.4" y1="394.0" x2="326.8" y2="415.0"/><line x1="310.1" y1="397.0" x2="318.4" y2="418.5"/><line x1="302.7" y1="399.6" x2="309.8" y2="421.6"/><line x1="295.1" y1="401.9" x2="301.1" y2="424.1"/><line x1="287.4" y1="403.7" x2="292.2" y2="426.3"/><line x1="279.6" y1="405.2" x2="283.2" y2="427.9"/><line x1="271.8" y1="406.2" x2="274.2" y2="429.1"/><line x1="263.9" y1="406.8" x2="265.1" y2="429.8"/><line x1="256.0" y1="407.0" x2="256.0" y2="430.1"/><line x1="248.1" y1="406.8" x2="246.9" y2="429.8"/><line x1="240.2" y1="406.2" x2="237.8" y2="429.1"/><line x1="232.4" y1="405.2" x2="228.8" y2="427.9"/><line x1="224.6" y1="403.7" x2="219.8" y2="426.3"/><line x1="216.9" y1="401.9" x2="210.9" y2="424.1"/><line x1="209.3" y1="399.6" x2="202.2" y2="421.6"/><line x1="201.9" y1="397.0" x2="193.6" y2="418.5"/><line x1="194.6" y1="394.0" x2="185.2" y2="415.0"/><line x1="187.4" y1="390.6" x2="177.0" y2="411.1"/><line x1="180.5" y1="386.8" x2="169.0" y2="406.8"/><line x1="173.7" y1="382.7" x2="161.2" y2="402.0"/><line x1="167.2" y1="378.2" x2="153.7" y2="396.8"/><line x1="160.9" y1="373.4" x2="146.4" y2="391.3"/><line x1="154.9" y1="368.2" x2="139.5" y2="385.4"/><line x1="149.2" y1="362.8" x2="132.9" y2="379.1"/><line x1="143.8" y1="357.1" x2="126.6" y2="372.5"/><line x1="138.6" y1="351.1" x2="120.7" y2="365.6"/><line x1="133.8" y1="344.8" x2="115.2" y2="358.3"/><line x1="129.3" y1="338.3" x2="110.0" y2="350.8"/><line x1="125.2" y1="331.5" x2="105.2" y2="343.0"/><line x1="121.4" y1="324.6" x2="100.9" y2="335.0"/><line x1="118.0" y1="317.4" x2="97.0" y2="326.8"/><line x1="115.0" y1="310.1" x2="93.5" y2="318.4"/><line x1="112.4" y1="302.7" x2="90.4" y2="309.8"/><line x1="110.1" y1="295.1" x2="87.9" y2="301.1"/><line x1="108.3" y1="287.4" x2="85.7" y2="292.2"/><line x1="106.8" y1="279.6" x2="84.1" y2="283.2"/><line x1="105.8" y1="271.8" x2="82.9" y2="274.2"/><line x1="105.2" y1="263.9" x2="82.2" y2="265.1"/><line x1="105.0" y1="256.0" x2="81.9" y2="256.0"/><line x1="105.2" y1="248.1" x2="82.2" y2="246.9"/><line x1="105.8" y1="240.2" x2="82.9" y2="237.8"/><line x1="106.8" y1="232.4" x2="84.1" y2="228.8"/><line x1="108.3" y1="224.6" x2="85.7" y2="219.8"/><line x1="110.1" y1="216.9" x2="87.9" y2="210.9"/><line x1="112.4" y1="209.3" x2="90.4" y2="202.2"/><line x1="115.0" y1="201.9" x2="93.5" y2="193.6"/><line x1="118.0" y1="194.6" x2="97.0" y2="185.2"/><line x1="121.4" y1="187.4" x2="100.9" y2="177.0"/><line x1="125.2" y1="180.5" x2="105.2" y2="169.0"/><line x1="129.3" y1="173.7" x2="110.0" y2="161.2"/><line x1="133.8" y1="167.2" x2="115.2" y2="153.7"/><line x1="138.6" y1="160.9" x2="120.7" y2="146.4"/><line x1="143.8" y1="154.9" x2="126.6" y2="139.5"/><line x1="149.2" y1="149.2" x2="132.9" y2="132.9"/><line x1="154.9" y1="143.8" x2="139.5" y2="126.6"/><line x1="160.9" y1="138.6" x2="146.4" y2="120.7"/><line x1="167.2" y1="133.8" x2="153.7" y2="115.2"/><line x1="173.7" y1="129.3" x2="161.2" y2="110.0"/><line x1="180.5" y1="125.2" x2="169.0" y2="105.2"/><line x1="187.4" y1="121.4" x2="177.0" y2="100.9"/><line x1="194.6" y1="118.0" x2="185.2" y2="97.0"/><line x1="201.9" y1="115.0" x2="193.6" y2="93.5"/><line x1="209.3" y1="112.4" x2="202.2" y2="90.4"/><line x1="216.9" y1="110.1" x2="210.9" y2="87.9"/><line x1="224.6" y1="108.3" x2="219.8" y2="85.7"/><line x1="232.4" y1="106.8" x2="228.8" y2="84.1"/><line x1="240.2" y1="105.8" x2="237.8" y2="82.9"/><line x1="248.1" y1="105.2" x2="246.9" y2="82.2"/><line x1="256.0" y1="105.0" x2="256.0" y2="81.9"/><line x1="263.9" y1="105.2" x2="265.1" y2="82.2"/><line x1="271.8" y1="105.8" x2="274.2" y2="82.9"/><line x1="279.6" y1="106.8" x2="283.2" y2="84.1"/><line x1="287.4" y1="108.3" x2="292.2" y2="85.7"/><line x1="295.1" y1="110.1" x2="301.1" y2="87.9"/><line x1="302.7" y1="112.4" x2="309.8" y2="90.4"/><line x1="310.1" y1="115.0" x2="318.4" y2="93.5"/><line x1="317.4" y1="118.0" x2="326.8" y2="97.0"/><line x1="324.6" y1="121.4" x2="335.0" y2="100.9"/><line x1="331.5" y1="125.2" x2="343.0" y2="105.2"/><line x1="338.3" y1="129.3" x2="350.8" y2="110.0"/><line x1="344.8" y1="133.8" x2="358.3" y2="115.2"/><line x1="351.1" y1="138.6" x2="365.6" y2="120.7"/><line x1="357.1" y1="143.8" x2="372.5" y2="126.6"/><line x1="362.8" y1="149.2" x2="379.1" y2="132.9"/><line x1="368.2" y1="154.9" x2="385.4" y2="139.5"/><line x1="373.4" y1="160.9" x2="391.3" y2="146.4"/><line x1="378.2" y1="167.2" x2="396.8" y2="153.7"/><line x1="382.7" y1="173.7" x2="402.0" y2="161.2"/><line x1="386.8" y1="180.5" x2="406.8" y2="169.0"/><line x1="390.6" y1="187.4" x2="411.1" y2="177.0"/><line x1="394.0" y1="194.6" x2="415.0" y2="185.2"/><line x1="397.0" y1="201.9" x2="418.5" y2="193.6"/><line x1="399.6" y1="209.3" x2="421.6" y2="202.2"/><line x1="401.9" y1="216.9" x2="424.1" y2="210.9"/><line x1="403.7" y1="224.6" x2="426.3" y2="219.8"/><line x1="405.2" y1="232.4" x2="427.9" y2="228.8"/><line x1="406.2" y1="240.2" x2="429.1" y2="237.8"/><line x1="406.8" y1="248.1" x2="429.8" y2="246.9"/></g>
  <circle cx="256" cy="256" r="136" fill="none" stroke="#ffffff" stroke-opacity="0.35" stroke-width="4"/>
  <text x="256" y="261" text-anchor="middle" dominant-baseline="central"
        font-family="'Segoe UI','Arial',sans-serif" font-weight="800" font-size="186" fill="url(#g)">D</text>
</svg>
